<svg width="59" height="60" viewBox="0 0 59 60" fill="none" xmlns="http://www.w3.org/2000/svg">
<path d="M47.1787 29.9794C47.1787 39.6419 39.3455 47.475 29.683 47.475M47.1787 29.9794C47.1787 20.3168 39.3455 12.4837 29.683 12.4837M47.1787 29.9794H55.9265M29.683 47.475C20.0204 47.475 12.1873 39.6419 12.1873 29.9794M29.683 47.475V56.2229M29.683 12.4837C20.0204 12.4837 12.1873 20.3168 12.1873 29.9794M29.683 12.4837V3.73584M12.1873 29.9794H3.43945M55.9265 25.6054V34.3533M3.43945 25.6054V34.3533M25.3091 3.73584H34.0569M25.3091 56.2229H34.0569M45.1483 8.32904L51.3339 14.5147M8.03265 45.4447L14.2183 51.6303M48.2409 11.4215L42.055 17.6072M17.313 42.3494L11.1273 48.535M8.03265 14.514L14.2183 8.32837M45.1483 51.6297L51.3339 45.4441M11.1251 11.4215L17.3108 17.6072M42.053 42.3494L48.2386 48.535M35.5149 35.8113H35.544M25.3091 28.5214H25.3382M28.225 28.5214C28.225 30.1319 26.9195 31.4373 25.3091 31.4373C23.6986 31.4373 22.3931 30.1319 22.3931 28.5214C22.3931 26.9109 23.6986 25.6054 25.3091 25.6054C26.9195 25.6054 28.225 26.9109 28.225 28.5214Z" stroke="#006F9E" stroke-width="5.83189" stroke-linecap="round" stroke-linejoin="round"/>
</svg>
