<svg width="71" height="70" viewBox="0 0 71 70" fill="none" xmlns="http://www.w3.org/2000/svg">
<path d="M38.5846 70H32.7513V64.1667C19.043 62.7083 7.95964 51.9167 6.5013 37.9167H0.667969V32.0833H6.5013C7.95964 18.375 18.7513 7.29167 32.7513 5.83333V0H38.5846V5.83333C52.293 7.29167 63.3763 18.0833 64.8346 32.0833H70.668V37.9167H64.8346C63.3763 51.625 52.5846 62.7083 38.5846 64.1667V70ZM38.5846 52.2083V58.0417C49.0846 56.5833 57.543 48.4167 58.7096 37.9167H52.8763C51.7096 45.2083 45.8763 51.0417 38.5846 52.2083ZM12.6263 37.9167C14.0846 48.4167 22.2513 56.875 32.7513 58.0417V52.2083C25.4596 51.0417 19.6263 45.2083 18.4596 37.9167H12.6263ZM38.5846 37.9167V46.375C42.668 45.2083 45.8763 42 47.043 37.9167H38.5846ZM24.293 37.9167C25.4596 42 28.668 45.2083 32.7513 46.375V37.9167H24.293ZM52.8763 32.0833H58.7096C57.543 21.5833 49.0846 13.125 38.5846 11.9583V17.7917C45.8763 18.9583 51.7096 24.7917 52.8763 32.0833ZM38.5846 32.0833H47.043C45.8763 28 42.668 24.7917 38.5846 23.625V32.0833ZM24.293 32.0833H32.7513V23.625C28.668 24.7917 25.4596 28 24.293 32.0833ZM12.6263 32.0833H18.4596C19.6263 24.7917 25.4596 18.9583 32.7513 17.7917V11.9583C22.2513 13.125 13.793 21.5833 12.6263 32.0833Z" fill="#006F9E"/>
</svg>
