<svg width="70" height="66" viewBox="0 0 70 66" fill="none" xmlns="http://www.w3.org/2000/svg">
<g filter="url(#filter0_d_1_30602)">
<path fill-rule="evenodd" clip-rule="evenodd" d="M35.0605 8.86306C23.0301 8.86306 13.2776 18.6156 13.2776 30.646C13.2776 42.6762 23.0301 52.4289 35.0605 52.4289C47.0908 52.4289 56.8434 42.6762 56.8434 30.646C56.8434 26.2043 55.5173 22.077 53.235 18.6327L38.1412 33.7266C36.4398 35.4277 33.6812 35.4277 31.9798 33.7266C30.2787 32.0253 30.2787 29.2667 31.9798 27.5653L50.4427 9.10253C52.1546 7.39071 54.9341 7.38784 56.6485 9.10596C62.1483 14.618 65.5566 22.2381 65.5566 30.646C65.5566 47.4885 51.9031 61.142 35.0605 61.142C18.218 61.142 4.56445 47.4885 4.56445 30.646C4.56445 13.8035 18.218 0.149902 35.0605 0.149902C37.9928 0.149902 40.8353 0.564997 43.5294 1.34236C45.841 2.00944 47.1744 4.42426 46.5073 6.73601C45.8401 9.04775 43.4254 10.381 41.1135 9.71393C39.1969 9.16088 37.1674 8.86306 35.0605 8.86306Z" fill="#006F9E"/>
<path d="M53.314 17.8466L53.6518 18.3565C55.9868 21.8803 57.3434 26.1032 57.3434 30.646C57.3434 42.9524 47.3669 52.9289 35.0605 52.9289C22.754 52.9289 12.7776 42.9524 12.7776 30.646C12.7776 18.3394 22.754 8.36306 35.0605 8.36306C37.2147 8.36306 39.291 8.66761 41.2522 9.23353C43.2987 9.82406 45.4363 8.64381 46.0269 6.59737C46.6175 4.55096 45.4371 2.41328 43.3908 1.82276C40.7413 1.05827 37.9454 0.649902 35.0605 0.649902C18.4941 0.649902 5.06445 14.0796 5.06445 30.646C5.06445 47.2124 18.4941 60.642 35.0605 60.642C51.6269 60.642 65.0566 47.2124 65.0566 30.646C65.0566 22.3759 61.7047 14.8813 56.2946 9.45913C54.7757 7.93695 52.313 7.93936 50.7963 9.45608L32.3334 27.9188C32.3334 27.9188 32.3334 27.9188 32.3334 27.9188C30.8276 29.425 30.8275 31.8669 32.3334 33.3731C32.3334 33.3731 32.3334 33.3731 32.3334 33.3731M53.314 17.8466L38.1412 33.7267C36.4398 35.4277 33.6812 35.4277 31.9798 33.7267L32.3334 33.3731M53.314 17.8466L52.8815 18.2791L37.7877 33.3731L53.314 17.8466ZM32.3334 33.3731C33.8395 34.8789 36.2815 34.8789 37.7876 33.3731L32.3334 33.3731Z" stroke="black"/>
</g>
<defs>
<filter id="filter0_d_1_30602" x="0.564453" y="0.149902" width="68.9922" height="68.9922" filterUnits="userSpaceOnUse" color-interpolation-filters="sRGB">
<feFlood flood-opacity="0" result="BackgroundImageFix"/>
<feColorMatrix in="SourceAlpha" type="matrix" values="0 0 0 0 0 0 0 0 0 0 0 0 0 0 0 0 0 0 127 0" result="hardAlpha"/>
<feOffset dy="4"/>
<feGaussianBlur stdDeviation="2"/>
<feComposite in2="hardAlpha" operator="out"/>
<feColorMatrix type="matrix" values="0 0 0 0 0 0 0 0 0 0 0 0 0 0 0 0 0 0 0.25 0"/>
<feBlend mode="normal" in2="BackgroundImageFix" result="effect1_dropShadow_1_30602"/>
<feBlend mode="normal" in="SourceGraphic" in2="effect1_dropShadow_1_30602" result="shape"/>
</filter>
</defs>
</svg>
