<svg width="62" height="62" viewBox="0 0 62 62" fill="none" xmlns="http://www.w3.org/2000/svg">
<path fill-rule="evenodd" clip-rule="evenodd" d="M31.0605 8.86306C19.0301 8.86306 9.27761 18.6156 9.27761 30.646C9.27761 42.6762 19.0301 52.4289 31.0605 52.4289C43.0908 52.4289 52.8434 42.6762 52.8434 30.646C52.8434 26.2043 51.5173 22.077 49.235 18.6327L34.1412 33.7266C32.4398 35.4277 29.6812 35.4277 27.9798 33.7266C26.2787 32.0253 26.2787 29.2667 27.9798 27.5653L46.4427 9.10253C48.1546 7.39071 50.9341 7.38784 52.6485 9.10596C58.1483 14.618 61.5566 22.2381 61.5566 30.646C61.5566 47.4885 47.9031 61.142 31.0605 61.142C14.218 61.142 0.564453 47.4885 0.564453 30.646C0.564453 13.8035 14.218 0.149902 31.0605 0.149902C33.9928 0.149902 36.8353 0.564997 39.5294 1.34236C41.841 2.00944 43.1744 4.42426 42.5073 6.73601C41.8401 9.04775 39.4254 10.381 37.1135 9.71393C35.1969 9.16088 33.1674 8.86306 31.0605 8.86306Z" fill="#006F9E"/>
</svg>
